<svg width="34" height="34" viewBox="0 0 34 34" fill="none" xmlns="http://www.w3.org/2000/svg">
<path d="M12.973 29.4261V25.0815C12.973 23.9765 13.8739 23.0786 14.9901 23.0712H19.0787C20.2002 23.0712 21.1094 23.9712 21.1094 25.0815V29.4396C21.1091 30.3778 21.8655 31.1446 22.813 31.1666H25.5387C28.2559 31.1666 30.4587 28.9859 30.4587 26.2958V13.9369C30.4441 12.8786 29.9422 11.8848 29.0958 11.2384L19.7738 3.8041C18.1406 2.50964 15.8191 2.50964 14.186 3.8041L4.90486 11.2519C4.05519 11.8957 3.55246 12.8911 3.54199 13.9503V26.2958C3.54199 28.9859 5.74473 31.1666 8.46195 31.1666H11.1877C12.1587 31.1666 12.9458 30.3873 12.9458 29.4261" stroke="#A1622F" stroke-width="2" stroke-linecap="round" stroke-linejoin="round"/>
</svg>
