<svg width="44" height="44" viewBox="0 0 44 44" fill="none" stroke="#A1622F" xmlns="http://www.w3.org/2000/svg">
<path d="M20.3076 10.1538C21.0084 10.1538 21.5768 10.7221 21.5768 11.423V20.3077H30.4614C31.1622 20.3077 31.7307 20.8759 31.7307 21.5769C31.7307 21.9604 31.5604 22.3041 31.2919 22.5366C31.0697 22.7293 30.7788 22.8461 30.4614 22.8461H21.5768V31.7307C21.5768 32.4317 21.0084 33 20.3076 33C19.6068 33 19.0384 32.4317 19.0384 31.7307V22.8461H10.1538C9.45304 22.8461 8.88452 22.2778 8.88452 21.5769C8.88452 20.8759 9.45304 20.3077 10.1538 20.3077H19.0384V11.423C19.0384 10.7221 19.6068 10.1538 20.3076 10.1538Z" fill="#973352"/>
</svg>
