<svg width="80" height="80" viewBox="0 0 80 80" fill="none" stroke="#a1622f" xmlns="http://www.w3.org/2000/svg">
<path d="M7.025 54.8012H9.3875C9.99625 58.9075 13.535 62.0725 17.8088 62.0725C22.0825 62.0725 25.62 58.9087 26.2288 54.8012H53.3388C53.9475 58.9075 57.4863 62.0725 61.7588 62.0725C66.0312 62.0725 69.57 58.9087 70.1787 54.8012H72.9738C75.4688 54.8012 77.4987 52.7712 77.4987 50.2762V40.7512C77.4987 40.1687 77.41 39.5737 77.2325 38.9762L72.1588 22.2562C71.385 19.6675 69.04 17.9275 66.3237 17.9275H8.5875C5.23 17.9275 2.5 20.6587 2.5 24.015V50.2775C2.5 52.7725 4.53 54.8012 7.025 54.8012ZM17.8088 59.5725C14.49 59.5725 11.7913 56.875 11.7863 53.5587C11.7863 53.5562 11.7875 53.5537 11.7875 53.5512C11.7875 53.5487 11.7863 53.545 11.7863 53.5425C11.79 50.2237 14.49 47.5262 17.8088 47.5262C21.1275 47.5262 23.8313 50.2287 23.8313 53.55C23.8313 56.8712 21.1287 59.5725 17.8088 59.5725ZM61.76 59.5725C58.44 59.5725 55.7388 56.8725 55.7375 53.5525C55.7375 53.5525 55.7375 53.55 55.7375 53.5487C55.7375 50.2275 58.44 47.5262 61.76 47.5262C65.08 47.5262 67.7825 50.2287 67.7825 53.55C67.7825 56.8712 65.08 59.5725 61.76 59.5725ZM35.675 34.8262V25.2012H44.9V34.8262H35.675ZM23.95 34.8262V25.2012H33.175V34.8262H23.95ZM13.2625 34.8262C12.69 34.8262 12.225 34.2937 12.225 33.6387V26.3887C12.225 25.7337 12.6912 25.2012 13.2625 25.2012H21.45V34.8262H13.2625ZM47.4 25.2012H56.625V34.8262H47.4V25.2012ZM59.125 35.0487V25.2012H70.4413L74.5075 38.6012H64.6663L59.125 35.0487ZM5 24.0137C5 22.035 6.61 20.4262 8.5875 20.4262H66.325C66.525 20.4262 66.7225 20.4425 66.9137 20.4737C68.1612 20.675 69.195 21.5137 69.6588 22.7012H57.88C57.88 22.7012 57.8763 22.7012 57.8737 22.7012C57.8713 22.7012 57.87 22.7012 57.8675 22.7012H46.155C46.155 22.7012 46.1512 22.7012 46.1488 22.7012C46.1462 22.7012 46.145 22.7012 46.1425 22.7012H34.43C34.43 22.7012 34.4262 22.7012 34.4237 22.7012C34.4212 22.7012 34.42 22.7012 34.4175 22.7012H22.705C22.705 22.7012 22.7013 22.7012 22.6987 22.7012C22.6963 22.7012 22.695 22.7012 22.6925 22.7012H13.2613C11.31 22.7012 9.72375 24.355 9.72375 26.3887V33.6387C9.72375 35.6725 11.3113 37.3262 13.2613 37.3262H58.0462L63.625 40.9037C63.8263 41.0337 64.06 41.1012 64.3 41.1012H75V50.2762C75 51.3937 74.0912 52.3012 72.975 52.3012H70.1813C69.5738 48.1925 66.035 45.0262 61.76 45.0262C57.485 45.0262 53.9463 48.1925 53.3388 52.3012H26.23C25.6225 48.1925 22.0837 45.0262 17.8088 45.0262C13.5337 45.0262 9.99375 48.1925 9.3875 52.3012H7.025C5.9075 52.3012 5 51.3925 5 50.2762V24.0137Z" fill="#973352"/>
</svg>
