<svg width="70" height="70" viewBox="0 0 70 70" fill="none" stroke="#a1622f" xmlns="http://www.w3.org/2000/svg">
<g clip-path="url(#clip0_11_731)">
<path fill-rule="evenodd" clip-rule="evenodd" d="M12.8954 42.5946C9.75518 42.5946 7.31389 39.4544 5.93574 34.3158C3.30742 24.5212 4.94151 9.54858 9.56814 0.482349C9.7158 0.177188 10.0407 -2.17557e-06 10.3852 0.0393734L23.5957 1.48643C23.9304 1.5258 24.2159 1.76206 24.2946 2.09675C26.8442 11.9505 25.2003 26.9329 20.5047 35.9204C18.2406 40.2517 15.5631 42.5946 12.8954 42.5946ZM10.7691 1.72268C6.53622 10.4247 5.0301 24.6491 7.52061 33.8926C8.6625 38.1451 10.5033 40.7144 12.5804 40.9408C16.6459 41.3838 22.001 32.6818 23.4973 19.0184C24.147 13.1515 23.9107 7.5109 22.8476 3.05161L10.7691 1.72268Z" fill="#973352"/>
<path fill-rule="evenodd" clip-rule="evenodd" d="M9.81422 67.0173C9.33187 67.0173 8.94796 66.594 8.99718 66.1018L11.6747 41.6594C11.7239 41.2164 12.1374 40.8916 12.5804 40.9408C13.0332 40.99 13.358 41.3936 13.3088 41.8464L10.6313 66.2888C10.582 66.7023 10.2277 67.0173 9.81422 67.0173Z" fill="#973352"/>
<path fill-rule="evenodd" clip-rule="evenodd" d="M12.482 69.9704C11.478 69.9704 10.4345 69.9114 9.42058 69.7933C4.74473 69.2814 -0.15754 67.6079 0.108246 65.1371C0.383875 62.6564 5.53224 62.0855 10.2081 62.5974C14.8839 63.1092 19.7862 64.7827 19.5106 67.2634C19.3039 69.1928 16.1046 69.9704 12.482 69.9704ZM7.15648 64.0641C5.95553 64.0641 4.84316 64.1527 3.90799 64.3397C2.15578 64.6843 1.75218 65.1962 1.74233 65.3143C1.73249 65.4324 2.00812 66.0132 3.64221 66.7318C6.83163 68.1296 12.3048 68.7301 15.7207 68.0509C17.463 67.7063 17.8765 67.2043 17.8863 67.0862C17.8962 66.9681 17.6107 66.3774 15.9865 65.6687C13.6042 64.6252 10.09 64.0641 7.15648 64.0641Z" fill="#973352"/>
<path fill-rule="evenodd" clip-rule="evenodd" d="M49.3376 41.9744C47.0539 41.9744 44.3566 40.4978 41.5216 37.6726C34.3454 30.5161 28.2618 16.715 27.7401 6.55605C27.7204 6.21152 27.9173 5.89651 28.2323 5.7587L40.3994 0.413457C40.7045 0.275643 41.0688 0.34455 41.305 0.580804C48.432 7.80623 54.5057 21.6664 54.9388 31.7761C55.1554 36.954 53.8462 40.4388 51.2474 41.5905C50.6567 41.8464 50.0169 41.9744 49.3376 41.9744ZM29.4136 7.02856C30.0928 16.6854 35.9106 29.7581 42.6832 36.5209C45.7938 39.6217 48.6781 40.9211 50.5878 40.0844C52.4975 39.2477 53.4819 36.2453 53.2949 31.845C52.8913 22.2866 47.1818 9.17453 40.5372 2.14598L29.4136 7.02856Z" fill="#973352"/>
<path fill-rule="evenodd" clip-rule="evenodd" d="M60.8155 64.1626C60.5005 64.1626 60.1954 63.9854 60.0674 63.6704L50.1644 41.1672C49.9873 40.7537 50.1743 40.2714 50.5877 40.0844C51.0012 39.9072 51.4835 40.0942 51.6706 40.5077L61.5637 63.0108C61.7999 63.5621 61.3963 64.1626 60.8155 64.1626Z" fill="#973352"/>
<path fill-rule="evenodd" clip-rule="evenodd" d="M54.8206 68.5825C53.3834 68.5825 52.2907 68.1986 51.8871 67.2732C50.883 64.9993 55.0568 61.9182 59.3586 60.0281C63.6604 58.1381 68.7497 57.134 69.7439 59.4178C70.748 61.6918 66.5742 64.7729 62.2724 66.6629C59.7327 67.7753 56.9075 68.5825 54.8206 68.5825ZM66.84 59.7427C63.2765 59.7427 57.4784 62.3218 54.7713 64.6941C53.4326 65.8656 53.3341 66.5054 53.3834 66.6137C53.4326 66.722 53.974 67.0862 55.736 66.8893C59.2109 66.5054 64.2313 64.3004 66.8597 61.9969C68.1984 60.8255 68.2969 60.1856 68.2476 60.0774C68.2083 59.9888 67.8637 59.7427 66.84 59.7427Z" fill="#973352"/>
<path fill-rule="evenodd" clip-rule="evenodd" d="M20.4163 11.8028C17.916 11.8028 16.4886 10.7397 16.1637 10.4641C15.8389 10.2672 13.4271 8.86935 10.5429 9.34186C9.39113 9.52889 8.28861 9.51905 7.27469 9.30248C6.83172 9.20405 6.54624 8.77091 6.64468 8.32794C6.74312 7.88496 7.17625 7.59949 7.61923 7.69793C8.43627 7.87512 9.32222 7.88496 10.2771 7.72746C14.0178 7.10729 17.0202 9.0367 17.217 9.20405C17.2663 9.25327 18.733 10.5428 21.7157 10.0506C22.7099 9.88328 23.7435 9.89312 24.7772 10.0605C25.23 10.1392 25.5253 10.5527 25.4564 11.0055C25.3776 11.4485 24.9642 11.7536 24.5114 11.6749C22.6115 11.3697 22.0012 11.8028 20.4163 11.8028Z" fill="#973352"/>
<path fill-rule="evenodd" clip-rule="evenodd" d="M29.0789 11.6453C28.1732 11.6453 27.937 10.3853 28.7737 10.0604C30.0731 9.54855 32.101 9.03667 34.3847 9.49933C37.4364 10.1097 38.8736 8.81026 39.0212 8.72167C39.1492 8.64292 42.1713 6.81195 45.8923 7.56009C46.0596 7.58962 46.227 7.61915 46.3845 7.63884C46.8274 7.6979 47.1424 8.12119 47.0834 8.56416C47.0145 9.01698 46.601 9.32214 46.1581 9.26308C45.9612 9.23355 45.7643 9.20402 45.5773 9.16464C42.7127 8.5937 40.2616 9.90293 39.917 10.0998C39.5134 10.4148 37.5151 11.793 34.0599 11.1039C32.1699 10.7298 30.4669 11.163 29.3742 11.5862C29.2758 11.6256 29.1773 11.6453 29.0789 11.6453Z" fill="#973352"/>
</g>
<defs>
<clipPath id="clip0_11_731">
<rect width="70" height="70" fill="white"/>
</clipPath>
</defs>
</svg>
