<svg width="80" height="80" viewBox="0 0 80 80" fill="none" stroke="#a1622f" xmlns="http://www.w3.org/2000/svg">
<path d="M76.5863 40.8289H73.8092C73.5492 36.6064 72.5208 32.5311 70.741 28.7C70.4694 28.1134 69.7736 27.8595 69.187 28.1311C68.6005 28.4033 68.3459 29.0991 68.6182 29.6857C70.2533 33.2068 71.2073 36.9501 71.4636 40.8289H17.8589C17.2125 40.8289 16.6888 41.3525 16.6888 41.9989C16.6888 42.6453 17.2125 43.1689 17.8589 43.1689H76.5863C77.1783 43.1689 77.6593 43.6505 77.6593 44.2426V45.6708C77.6593 46.2628 77.1783 46.7444 76.5863 46.7444H3.4137C2.82166 46.7444 2.3407 46.2628 2.3407 45.6708V44.2426C2.3407 43.6505 2.82166 43.1689 3.4137 43.1689H12.4042C13.0505 43.1689 13.5748 42.6453 13.5748 41.9989C13.5748 41.3525 13.0505 40.8289 12.4042 40.8289H8.53638C9.05212 33.0548 12.3859 25.8228 18.0048 20.3528C23.4198 15.0818 30.4169 11.9788 37.8949 11.4868C37.8992 11.4868 37.9034 11.4874 37.9077 11.4868C38.2263 11.4661 38.5413 11.4502 38.8525 11.4386C38.9148 11.4368 38.9764 11.4337 39.0387 11.4319C39.1498 11.4282 39.2603 11.4258 39.3695 11.4233C39.5795 11.4197 39.7894 11.416 40 11.416C40.2795 11.416 40.5591 11.4215 40.838 11.4288C40.9204 11.4313 41.0022 11.4337 41.0852 11.4362C41.3 11.4435 41.5143 11.4545 41.7285 11.4661C41.842 11.4722 41.9556 11.4783 42.0697 11.4856C51.6772 12.1167 60.5164 17.113 66.0168 25.1245C66.3824 25.6567 67.1112 25.7928 67.644 25.4266C68.1769 25.061 68.3124 24.3323 67.9462 23.7994C62.5336 15.9155 54.1089 10.752 44.7974 9.42017C45.3809 8.5144 45.7086 7.44812 45.7086 6.33118C45.7086 5.69519 45.4248 4.5227 43.5242 3.82324C42.5751 3.47412 41.3232 3.28125 40 3.28125C38.6761 3.28125 37.4243 3.47412 36.4752 3.82324C34.5746 4.5227 34.2914 5.69519 34.2914 6.33118C34.2914 7.44507 34.6179 8.50952 35.1978 9.41345C28.1281 10.4138 21.571 13.6145 16.3721 18.6755C10.2985 24.588 6.71021 32.4176 6.1908 40.8282H3.4137C1.53137 40.8289 0 42.3602 0 44.2426V45.6708C0 47.5537 1.53137 49.0851 3.4137 49.0851H16.0205C15.3912 49.516 14.7882 49.9994 14.2236 50.5359L14.2004 50.5579C14.1644 50.5914 14.1302 50.6274 14.0991 50.6659L8.54309 57.4127C7.84607 56.9702 7.02087 56.8091 6.20667 56.9653C5.35767 57.1277 4.62341 57.6111 4.13879 58.3264L1.95374 61.5485C0.95459 63.0225 1.34033 65.036 2.81311 66.0364L17.7649 76.1938C18.3069 76.5619 18.9331 76.7535 19.5746 76.7535C19.7784 76.7535 19.9841 76.734 20.1892 76.6949C21.0376 76.5326 21.7719 76.0492 22.2565 75.3339L24.4415 72.1118C25.4407 70.6378 25.0555 68.6243 23.5828 67.6239L23.4973 67.5659C24.538 66.3849 25.9253 65.5383 27.4347 65.1892C30.6152 64.4525 34.3579 64.9268 36.8964 65.3473C40.0366 65.8673 43.335 65.6897 46.4349 64.8334L50.744 63.6426C53.6145 62.8491 56.2561 61.5131 58.5962 59.671C58.6139 59.657 58.631 59.6429 58.6481 59.6277L66.0461 53.0756C67.3071 52.1106 67.5818 50.4395 67.1466 49.0851H76.5863C78.4686 49.0851 80 47.5537 80 45.6714V44.2426C80 42.3602 78.4686 40.8289 76.5863 40.8289ZM40 5.62195C41.9708 5.62195 43.1519 6.10962 43.3679 6.38062C43.3521 7.49084 42.7905 8.51501 41.8768 9.12903C41.6467 9.11682 41.4197 9.10706 41.1932 9.09851C41.1169 9.09607 41.0406 9.09241 40.9644 9.09058C40.6378 9.08081 40.3156 9.07593 40 9.07593C39.776 9.07593 39.5477 9.07898 39.3176 9.08386C39.2065 9.08569 39.0948 9.08875 38.9832 9.09241C38.8501 9.09668 38.7158 9.10095 38.5815 9.10645C38.4283 9.11316 38.2751 9.11987 38.1226 9.12842C37.2089 8.5144 36.6479 7.49023 36.6321 6.38062C36.8481 6.10962 38.0292 5.62195 40 5.62195ZM48.3923 49.6497C48.3051 49.4519 48.2007 49.2639 48.0829 49.0851H59.3079L54.4543 52.2974L47.536 54.2987L47.301 54.3042C48.6328 53.194 49.1187 51.2982 48.3923 49.6497ZM35.7019 49.0851L34.0131 49.4373L32.7075 49.0851H35.7019ZM22.5043 70.7983L20.3198 74.0204C20.1862 74.2181 19.9835 74.3512 19.7491 74.3964C19.5154 74.4409 19.2773 74.3921 19.0802 74.2578L4.12842 64.1003C3.72192 63.8245 3.61572 63.269 3.8916 62.8625L6.07666 59.6399C6.21033 59.4427 6.41235 59.3091 6.64673 59.2645C6.70349 59.2535 6.76025 59.248 6.81641 59.248C6.99341 59.248 7.16614 59.3011 7.31567 59.4031L8.12317 59.9512C8.12317 59.9518 8.12378 59.9518 8.12378 59.9518L22.2675 69.5599C22.674 69.8358 22.7802 70.3918 22.5043 70.7983ZM64.61 51.2274C64.5819 51.2476 64.5551 51.2695 64.5288 51.2927L57.1228 57.8528C55.0348 59.4904 52.6788 60.6793 50.1208 61.3861L45.8118 62.5769C43.0371 63.3441 40.0867 63.5034 37.2797 63.0383C34.5441 62.5854 30.4938 62.0782 26.9067 62.9089C24.8291 63.3899 22.9321 64.5837 21.5521 66.2439L10.4907 58.7299L15.8594 52.2101C17.89 50.293 20.4651 49.1547 22.9309 49.0851H22.9785C23.7433 49.0723 24.5526 49.2975 25.4089 49.5374C25.5811 49.585 25.7526 49.6332 25.9247 49.6796L33.6737 51.77C33.8513 51.8176 34.0375 51.8231 34.2175 51.7853L44.3665 49.6692C44.8267 49.574 45.3101 49.6674 45.6927 49.9268C45.9399 50.0946 46.1328 50.3253 46.2506 50.5933C46.5985 51.3824 46.2708 52.309 45.4932 52.7094L42.0306 54.5428C41.5515 54.7968 41.3098 55.3461 41.4459 55.871C41.5826 56.3965 42.0605 56.7542 42.6038 56.7468L47.7399 56.6357C47.8418 56.6333 47.9425 56.618 48.0396 56.59L55.2765 54.4965C55.3906 54.4635 55.4987 54.4135 55.5975 54.3481L62.8986 49.5154C63.5114 49.137 64.3268 48.8257 64.7607 49.4659C65.0989 49.964 65.1068 50.8606 64.61 51.2274Z" fill="#973352"/>
</svg>
