<svg width="80" height="80" viewBox="0 0 80 80" fill="none" stroke="#a1622f" xmlns="http://www.w3.org/2000/svg">
<path d="M77.5 78.8519H48.5938C48.0544 78.8519 47.6172 78.4147 47.6172 77.8753V62.2503C47.6172 58.0502 44.2002 54.6332 40 54.6332C35.7998 54.6332 32.3828 58.0502 32.3828 62.2503V77.8753C32.3828 78.4147 31.9456 78.8519 31.4062 78.8519H2.5C1.96063 78.8519 1.52344 78.4147 1.52344 77.8753V66.1566C1.52344 65.1702 2.26047 64.1211 3.84313 62.8549C6.21969 60.9538 8.89422 59.3219 11.3858 57.5728C14.0163 55.7264 16.6516 53.8867 19.2841 52.0432C19.8741 51.63 20.4645 51.2174 21.0547 50.8042C21.0547 49.0089 20.7566 47.0357 21.2725 45.2925C21.7487 43.6833 22.5323 42.1822 23.4392 40.7732C24.2003 39.5908 25.1147 38.5458 25.9531 37.4235C28.2422 34.3596 33.0123 27.6242 34.55 25.7025C36.5441 23.21 38.0406 22.3003 39.0234 22.0047V10.8828C39.0234 10.8828 33.7667 10.8828 33.75 10.8828C32.5022 10.8828 32.475 8.92972 33.75 8.92972H39.0234C39.0234 8.92972 39.0234 2.11503 39.0234 2.09378C39.0234 0.843622 40.9766 0.821122 40.9766 2.09378V8.92972H46.25C47.5 8.92972 47.5225 10.8828 46.25 10.8828H40.9766V22.0046C41.9594 22.3002 43.4561 23.2099 45.4502 25.7025C46.5347 27.0582 47.5438 28.4775 48.5683 29.8786C49.8809 31.6741 51.1853 33.4758 52.4888 35.2783C54.0909 37.4942 55.8959 39.5389 57.3294 41.8792C58.0327 43.0275 58.8184 44.3413 58.9783 45.7091C59.0195 46.0625 58.9453 46.3863 58.9453 46.7336V50.8044L74.1275 61.4319C74.3098 61.543 75.2277 62.1116 76.1569 62.8549C77.7394 64.1211 78.4766 65.17 78.4766 66.1566V77.8753C78.4766 78.4147 78.0394 78.8519 77.5 78.8519ZM58.9453 76.8988H76.5234V66.1566C76.503 65.6258 74.835 64.1341 73.0912 63.0877C73.0717 63.076 73.0525 63.0635 73.0337 63.0503L58.9453 53.1885V76.8988ZM49.5703 76.8988H56.9922V51.3249C56.992 51.3163 56.992 51.3077 56.9922 51.2991C56.9922 49.7661 57.1347 48.235 57.0527 46.7022C56.9798 45.345 56.3377 44.2969 55.6523 43.1589C54.9428 41.9808 54.1564 40.8482 53.3434 39.7394C52.1705 38.1397 51.0014 36.5382 49.8363 34.9325C48.4064 32.9621 46.9758 30.9917 45.5256 29.0361C44.9997 28.3266 44.477 27.6127 43.9252 26.923C41.5652 23.973 40.3191 23.8399 40.1833 23.8346C40.0623 23.8575 39.9381 23.8575 39.817 23.8346C39.6812 23.8399 38.4353 23.9727 36.0752 26.9228C34.535 28.8478 27.4742 38.6514 27.4537 38.6746C25.7269 40.6482 23.8239 42.9086 23.1072 45.4889C22.8086 46.5641 23.0063 47.9297 23.0066 49.0457C23.0067 49.7969 23.008 50.548 23.008 51.2991V51.3249V76.8988H30.4298V62.2503C30.4298 56.9733 34.7231 52.68 40.0002 52.68C45.2772 52.68 49.5705 56.9733 49.5705 62.2503V76.8988H49.5703ZM3.47656 76.8988H21.0547V53.1885L6.96625 63.0503C6.9475 63.0635 6.92828 63.076 6.90859 63.0877C6.08578 63.5824 5.28453 64.148 4.57141 64.7922C3.725 65.5569 3.45953 66.1614 3.48563 67.2605C3.50563 68.1038 3.48328 68.9552 3.47797 69.7989C3.46547 71.7239 3.47406 73.6496 3.47609 75.5746C3.47641 76.016 3.47656 76.4574 3.47656 76.8988Z" fill="#973352"/>
</svg>
