<svg width="36" height="36" viewBox="0 0 36 36" fill="none" xmlns="http://www.w3.org/2000/svg">
<path d="M17.9651 31.3542C21.6369 31.3669 25.3127 29.8255 27.9314 26.7189C31.8496 22.0709 31.9729 15.0959 28.2102 10.3214C23.3117 4.10391 14.264 3.7147 8.8446 9.15241C4.88299 13.126 4.02737 19.0133 6.24694 23.8287C6.43178 24.2909 7.14737 25.5611 7.62769 26.3972C7.90077 26.8721 7.87276 27.458 7.55767 27.9047C7.24119 28.3516 6.8407 28.9235 6.52842 29.3928C5.96967 30.2316 6.56343 31.3557 7.56888 31.3542L8.34841 31.354C11.7674 31.3525 16.7738 31.3504 17.9651 31.3542Z" stroke="#A1622F" stroke-width="2" stroke-linecap="round" stroke-linejoin="round"/>
<path d="M17.6768 23.9089V23.9191" stroke="#A1622F" stroke-width="2" stroke-linecap="round" stroke-linejoin="round"/>
<path d="M17.6745 20.6711C17.6591 19.4894 18.7305 18.9877 19.5287 18.5311C20.4991 17.9943 21.1586 17.1386 21.1586 15.9513C21.1586 14.1922 19.7401 12.78 17.9981 12.78C16.2448 12.78 14.8389 14.1922 14.8389 15.9513" stroke="#A1622F" stroke-width="2" stroke-linecap="round" stroke-linejoin="round"/>
</svg>
